<svg width="1083" height="519" viewBox="0 0 1083 519" fill="none" xmlns="http://www.w3.org/2000/svg">
<path d="M1181.63 463.385C1181.63 402.533 1169.65 342.276 1146.36 286.055C1123.07 229.835 1088.94 178.752 1045.91 135.722C1002.88 92.6931 951.798 58.5604 895.578 35.2731C839.357 11.9858 779.101 -2.65995e-06 718.248 0C657.395 2.65995e-06 597.139 11.9858 540.918 35.2731C484.698 58.5604 433.614 92.6931 390.585 135.722C347.556 178.752 313.423 229.835 290.136 286.055C266.848 342.276 254.863 402.533 254.863 463.385L718.248 463.385H1181.63Z" fill="#F3EFE4"/>
<path d="M440.216 463.382C440.216 434.477 434.523 405.855 423.461 379.151C412.4 352.446 396.187 328.181 375.748 307.743C355.309 287.304 331.044 271.091 304.34 260.029C277.635 248.968 249.013 243.274 220.108 243.274C191.203 243.274 162.581 248.968 135.876 260.029C109.172 271.091 84.9071 287.304 64.4681 307.743C44.0292 328.182 27.8162 352.446 16.7547 379.151C5.69326 405.856 -2.52695e-06 434.477 0 463.382L220.108 463.382H440.216Z" fill="#F3EFE4"/>
</svg>
